<svg xmlns="http://www.w3.org/2000/svg" width="1200" height="630" viewBox="0 0 1200 630">
  <defs>
    <linearGradient id="bg" x1="0%" y1="0%" x2="100%" y2="100%">
      <stop offset="0%" style="stop-color:#070e1a"/>
      <stop offset="100%" style="stop-color:#0a1628"/>
    </linearGradient>
    <linearGradient id="glow1" x1="0%" y1="0%" x2="100%" y2="100%">
      <stop offset="0%" style="stop-color:#0F52BA;stop-opacity:0.3"/>
      <stop offset="100%" style="stop-color:#0F52BA;stop-opacity:0"/>
    </linearGradient>
    <linearGradient id="glow2" x1="100%" y1="0%" x2="0%" y2="100%">
      <stop offset="0%" style="stop-color:#1976D2;stop-opacity:0.15"/>
      <stop offset="100%" style="stop-color:#1976D2;stop-opacity:0"/>
    </linearGradient>
    <linearGradient id="titleGrad" x1="0%" y1="0%" x2="100%" y2="0%">
      <stop offset="0%" style="stop-color:#3b82f6"/>
      <stop offset="50%" style="stop-color:#1565C0"/>
      <stop offset="100%" style="stop-color:#0F52BA"/>
    </linearGradient>
    <linearGradient id="redGlow" x1="0%" y1="0%" x2="100%" y2="100%">
      <stop offset="0%" style="stop-color:#DC2626;stop-opacity:0.08"/>
      <stop offset="100%" style="stop-color:#DC2626;stop-opacity:0"/>
    </linearGradient>
  </defs>

  <rect width="1200" height="630" fill="url(#bg)"/>
  <ellipse cx="240" cy="315" rx="400" ry="300" fill="url(#glow1)"/>
  <ellipse cx="960" cy="190" rx="350" ry="250" fill="url(#glow2)"/>
  <ellipse cx="840" cy="500" rx="300" ry="200" fill="url(#redGlow)"/>

  <pattern id="grid" width="60" height="60" patternUnits="userSpaceOnUse">
    <path d="M 60 0 L 0 0 0 60" fill="none" stroke="rgba(255,255,255,0.025)" stroke-width="0.5"/>
  </pattern>
  <rect width="1200" height="630" fill="url(#grid)"/>

  <path d="M 70 20 L 20 20 L 20 70" fill="none" stroke="rgba(15,82,186,0.35)" stroke-width="2" stroke-linecap="round"/>
  <path d="M 1130 610 L 1180 610 L 1180 560" fill="none" stroke="rgba(220,38,38,0.25)" stroke-width="2" stroke-linecap="round"/>

  <rect x="50" y="50" width="1100" height="530" rx="32" fill="rgba(255,255,255,0.035)" stroke="rgba(255,255,255,0.07)" stroke-width="1"/>

  <rect x="120" y="120" width="380" height="36" rx="18" fill="rgba(15,82,186,0.2)" stroke="rgba(15,82,186,0.4)" stroke-width="1"/>
  <text x="310" y="143" font-family="Inter, -apple-system, sans-serif" font-size="12" font-weight="700" fill="#5b9bf5" text-anchor="middle" letter-spacing="2">
    AFOS-CRYPTO &#x2022; ADVISOR &amp; OFFSHORE TREASURY
  </text>

  <text x="120" y="225" font-family="Inter, -apple-system, sans-serif" font-size="58" font-weight="900" fill="#ffffff">
    Tesouraria
  </text>
  <text x="120" y="290" font-family="Inter, -apple-system, sans-serif" font-size="58" font-weight="900" fill="url(#titleGrad)">
    Patrimonial Digital
  </text>

  <text x="120" y="340" font-family="Inter, -apple-system, sans-serif" font-size="20" font-weight="400" fill="rgba(255,255,255,0.5)">
    A infraestrutura de capital da nova economia
  </text>

  <!-- 3 pillars -->
  <rect x="120" y="380" width="280" height="60" rx="12" fill="rgba(15,82,186,0.12)" stroke="rgba(15,82,186,0.25)" stroke-width="1"/>
  <circle cx="145" cy="410" r="5" fill="#0F52BA"/>
  <text x="160" y="405" font-family="Inter, sans-serif" font-size="13" font-weight="700" fill="#5b9bf5">Tesouraria Patrimonial Digital</text>
  <text x="160" y="422" font-family="Inter, sans-serif" font-size="11" font-weight="400" fill="rgba(255,255,255,0.45)">Cust&#xF3;dia soberana de capital</text>

  <rect x="420" y="380" width="280" height="60" rx="12" fill="rgba(22,163,74,0.1)" stroke="rgba(22,163,74,0.2)" stroke-width="1"/>
  <circle cx="445" cy="410" r="5" fill="#16a34a"/>
  <text x="460" y="405" font-family="Inter, sans-serif" font-size="13" font-weight="700" fill="#4ade80">SETUP Web3</text>
  <text x="460" y="422" font-family="Inter, sans-serif" font-size="11" font-weight="400" fill="rgba(255,255,255,0.45)">Programa + Consultoria Privada</text>

  <rect x="720" y="380" width="280" height="60" rx="12" fill="rgba(220,38,38,0.08)" stroke="rgba(220,38,38,0.18)" stroke-width="1"/>
  <circle cx="745" cy="410" r="5" fill="#DC2626"/>
  <text x="760" y="405" font-family="Inter, sans-serif" font-size="13" font-weight="700" fill="#f87171">COFO — Estrutura Offshore</text>
  <text x="760" y="422" font-family="Inter, sans-serif" font-size="11" font-weight="400" fill="rgba(255,255,255,0.45)">Crypto Offshore Family Office</text>

  <!-- Bottom stats -->
  <circle cx="132" cy="490" r="5" fill="#0F52BA"/>
  <circle cx="132" cy="490" r="9" fill="none" stroke="rgba(15,82,186,0.3)" stroke-width="1"/>
  <text x="148" y="495" font-family="Inter, sans-serif" font-size="13" font-weight="600" fill="rgba(255,255,255,0.55)">Soberania patrimonial</text>

  <circle cx="362" cy="490" r="5" fill="#16a34a"/>
  <circle cx="362" cy="490" r="9" fill="none" stroke="rgba(22,163,74,0.3)" stroke-width="1"/>
  <text x="378" y="495" font-family="Inter, sans-serif" font-size="13" font-weight="600" fill="rgba(255,255,255,0.55)">Independ&#xEA;ncia banc&#xE1;ria</text>

  <circle cx="582" cy="490" r="5" fill="#DC2626"/>
  <circle cx="582" cy="490" r="9" fill="none" stroke="rgba(220,38,38,0.3)" stroke-width="1"/>
  <text x="598" y="495" font-family="Inter, sans-serif" font-size="13" font-weight="600" fill="rgba(255,255,255,0.55)">Prote&#xE7;&#xE3;o descentralizada</text>

  <circle cx="812" cy="490" r="5" fill="#0891b2"/>
  <circle cx="812" cy="490" r="9" fill="none" stroke="rgba(8,145,178,0.3)" stroke-width="1"/>
  <text x="828" y="495" font-family="Inter, sans-serif" font-size="13" font-weight="600" fill="rgba(255,255,255,0.55)">Multi jurisdi&#xE7;&#xF5;es</text>

</svg>
