<svg xmlns="http://www.w3.org/2000/svg" width="1200" height="630" viewBox="0 0 1200 630">
  <defs>
    <linearGradient id="bg" x1="0%" y1="0%" x2="100%" y2="100%">
      <stop offset="0%" style="stop-color:#070e1a"/>
      <stop offset="100%" style="stop-color:#0a1628"/>
    </linearGradient>
    <linearGradient id="glow1" x1="0%" y1="0%" x2="100%" y2="100%">
      <stop offset="0%" style="stop-color:#0F52BA;stop-opacity:0.3"/>
      <stop offset="100%" style="stop-color:#0F52BA;stop-opacity:0"/>
    </linearGradient>
    <linearGradient id="glow2" x1="100%" y1="0%" x2="0%" y2="100%">
      <stop offset="0%" style="stop-color:#1976D2;stop-opacity:0.15"/>
      <stop offset="100%" style="stop-color:#1976D2;stop-opacity:0"/>
    </linearGradient>
    <linearGradient id="titleGrad" x1="0%" y1="0%" x2="100%" y2="0%">
      <stop offset="0%" style="stop-color:#3b82f6"/>
      <stop offset="50%" style="stop-color:#1565C0"/>
      <stop offset="100%" style="stop-color:#0F52BA"/>
    </linearGradient>
    <linearGradient id="redGlow" x1="0%" y1="0%" x2="100%" y2="100%">
      <stop offset="0%" style="stop-color:#DC2626;stop-opacity:0.08"/>
      <stop offset="100%" style="stop-color:#DC2626;stop-opacity:0"/>
    </linearGradient>
  </defs>

  <rect width="1200" height="630" fill="url(#bg)"/>
  <ellipse cx="240" cy="315" rx="400" ry="300" fill="url(#glow1)"/>
  <ellipse cx="960" cy="190" rx="350" ry="250" fill="url(#glow2)"/>
  <ellipse cx="840" cy="500" rx="300" ry="200" fill="url(#redGlow)"/>

  <pattern id="grid" width="60" height="60" patternUnits="userSpaceOnUse">
    <path d="M 60 0 L 0 0 0 60" fill="none" stroke="rgba(255,255,255,0.025)" stroke-width="0.5"/>
  </pattern>
  <rect width="1200" height="630" fill="url(#grid)"/>

  <path d="M 70 20 L 20 20 L 20 70" fill="none" stroke="rgba(15,82,186,0.35)" stroke-width="2" stroke-linecap="round"/>
  <path d="M 1130 610 L 1180 610 L 1180 560" fill="none" stroke="rgba(220,38,38,0.25)" stroke-width="2" stroke-linecap="round"/>

  <rect x="50" y="50" width="1100" height="530" rx="32" fill="rgba(255,255,255,0.035)" stroke="rgba(255,255,255,0.07)" stroke-width="1"/>

  <rect x="120" y="120" width="320" height="36" rx="18" fill="rgba(15,82,186,0.2)" stroke="rgba(15,82,186,0.4)" stroke-width="1"/>
  <text x="280" y="143" font-family="Inter, -apple-system, sans-serif" font-size="12" font-weight="700" fill="#5b9bf5" text-anchor="middle" letter-spacing="2">
    AFOS-CRYPTO &#x2022; PROTOCOLOS T&#xC9;CNICOS
  </text>

  <text x="120" y="225" font-family="Inter, -apple-system, sans-serif" font-size="58" font-weight="900" fill="#ffffff">
    Protocolos
  </text>
  <text x="120" y="295" font-family="Inter, -apple-system, sans-serif" font-size="58" font-weight="900" fill="url(#titleGrad)">
    T&#xE9;cnicos
  </text>

  <text x="120" y="345" font-family="Inter, -apple-system, sans-serif" font-size="20" font-weight="400" fill="rgba(255,255,255,0.5)">
    Ferramentas, protocolos e infraestrutura operacional
  </text>

  <!-- Protocol tags -->
  <rect x="120" y="385" width="70" height="28" rx="6" fill="rgba(15,82,186,0.15)" stroke="rgba(15,82,186,0.3)" stroke-width="1"/>
  <text x="155" y="403" font-family="Inter, sans-serif" font-size="11" font-weight="700" fill="#5b9bf5" text-anchor="middle">Trezor</text>

  <rect x="200" y="385" width="70" height="28" rx="6" fill="rgba(15,82,186,0.15)" stroke="rgba(15,82,186,0.3)" stroke-width="1"/>
  <text x="235" y="403" font-family="Inter, sans-serif" font-size="11" font-weight="700" fill="#5b9bf5" text-anchor="middle">Ledger</text>

  <rect x="280" y="385" width="85" height="28" rx="6" fill="rgba(124,58,237,0.12)" stroke="rgba(124,58,237,0.25)" stroke-width="1"/>
  <text x="322" y="403" font-family="Inter, sans-serif" font-size="11" font-weight="700" fill="#a78bfa" text-anchor="middle">MetaMask</text>

  <rect x="375" y="385" width="80" height="28" rx="6" fill="rgba(124,58,237,0.12)" stroke="rgba(124,58,237,0.25)" stroke-width="1"/>
  <text x="415" y="403" font-family="Inter, sans-serif" font-size="11" font-weight="700" fill="#a78bfa" text-anchor="middle">Uniswap</text>

  <rect x="465" y="385" width="65" height="28" rx="6" fill="rgba(22,163,74,0.12)" stroke="rgba(22,163,74,0.25)" stroke-width="1"/>
  <text x="497" y="403" font-family="Inter, sans-serif" font-size="11" font-weight="700" fill="#4ade80" text-anchor="middle">Signal</text>

  <rect x="540" y="385" width="60" height="28" rx="6" fill="rgba(22,163,74,0.12)" stroke="rgba(22,163,74,0.25)" stroke-width="1"/>
  <text x="570" y="403" font-family="Inter, sans-serif" font-size="11" font-weight="700" fill="#4ade80" text-anchor="middle">Brave</text>

  <rect x="610" y="385" width="90" height="28" rx="6" fill="rgba(220,38,38,0.1)" stroke="rgba(220,38,38,0.2)" stroke-width="1"/>
  <text x="655" y="403" font-family="Inter, sans-serif" font-size="11" font-weight="700" fill="#f87171" text-anchor="middle">Safe Wallet</text>

  <rect x="710" y="385" width="90" height="28" rx="6" fill="rgba(220,38,38,0.1)" stroke="rgba(220,38,38,0.2)" stroke-width="1"/>
  <text x="755" y="403" font-family="Inter, sans-serif" font-size="11" font-weight="700" fill="#f87171" text-anchor="middle">Hyperliquid</text>

  <!-- Bottom stats -->
  <circle cx="132" cy="490" r="5" fill="#0F52BA"/>
  <circle cx="132" cy="490" r="9" fill="none" stroke="rgba(15,82,186,0.3)" stroke-width="1"/>
  <text x="148" y="495" font-family="Inter, sans-serif" font-size="13" font-weight="600" fill="rgba(255,255,255,0.55)">11 m&#xF3;dulos</text>

  <circle cx="302" cy="490" r="5" fill="#16a34a"/>
  <circle cx="302" cy="490" r="9" fill="none" stroke="rgba(22,163,74,0.3)" stroke-width="1"/>
  <text x="318" y="495" font-family="Inter, sans-serif" font-size="13" font-weight="600" fill="rgba(255,255,255,0.55)">26 ferramentas</text>

  <circle cx="492" cy="490" r="5" fill="#7c3aed"/>
  <circle cx="492" cy="490" r="9" fill="none" stroke="rgba(124,58,237,0.3)" stroke-width="1"/>
  <text x="508" y="495" font-family="Inter, sans-serif" font-size="13" font-weight="600" fill="rgba(255,255,255,0.55)">DeFi + CeFi</text>

  <circle cx="652" cy="490" r="5" fill="#DC2626"/>
  <circle cx="652" cy="490" r="9" fill="none" stroke="rgba(220,38,38,0.3)" stroke-width="1"/>
  <text x="668" y="495" font-family="Inter, sans-serif" font-size="13" font-weight="600" fill="rgba(255,255,255,0.55)">MultiSig + Cold Storage</text>

  <circle cx="872" cy="490" r="5" fill="#0891b2"/>
  <circle cx="872" cy="490" r="9" fill="none" stroke="rgba(8,145,178,0.3)" stroke-width="1"/>
  <text x="888" y="495" font-family="Inter, sans-serif" font-size="13" font-weight="600" fill="rgba(255,255,255,0.55)">Multi jurisdi&#xE7;&#xF5;es</text>

</svg>
